<svg width="20" height="20" viewBox="0 0 20 20" fill="none" xmlns="http://www.w3.org/2000/svg">
<g opacity="0.5">
<path d="M14.5977 0H5.40234C2.42578 0 0 2.42578 0 5.40234V14.5938C0 17.5742 2.42578 20 5.40234 20H14.5938C17.5742 20 19.9961 17.5742 19.9961 14.5977V5.40234C20 2.42578 17.5742 0 14.5977 0ZM18.3828 14.5977C18.3828 16.6875 16.6836 18.3867 14.5938 18.3867H5.40234C3.3125 18.3867 1.61328 16.6875 1.61328 14.5977V5.40234C1.61328 3.3125 3.3125 1.61328 5.40234 1.61328H14.5938C16.6836 1.61328 18.3828 3.3125 18.3828 5.40234V14.5977Z" fill="black" fill-opacity="0.5"/>
<path d="M5.53516 14.4688V8.85938H7.75C8.00391 8.85938 8.22656 8.6875 8.28516 8.44141L8.83984 6.22656C8.92578 5.87891 8.66406 5.53906 8.30469 5.53906H5.53516V3.875C5.53516 3.57031 5.78516 3.32031 6.08984 3.32031H8.30469C8.60938 3.32031 8.85937 3.07422 8.85937 2.76563V0.554688C8.85937 0.25 8.61328 1.19209e-07 8.30469 1.19209e-07H6.08984C3.95312 1.19209e-07 2.21484 1.73828 2.21484 3.875V5.53516H0.554688C0.25 5.53516 2.38419e-07 5.78125 2.38419e-07 6.08984V8.30469C2.38419e-07 8.60938 0.246094 8.85547 0.554688 8.85547H2.21484V14.4688H5.53516Z" transform="translate(5.64844 4.01562)" fill="black" fill-opacity="0.5"/>
</g>
</svg>
