<svg width="20" height="20" viewBox="0 0 20 20" fill="none" xmlns="http://www.w3.org/2000/svg">
<g opacity="0.5">
<path d="M14.5977 0H5.40234C2.42578 0 0 2.42578 0 5.40234V14.5938C0 17.5742 2.42578 20 5.40234 20H14.5938C17.5742 20 19.9961 17.5742 19.9961 14.5977V5.40234C20 2.42578 17.5742 0 14.5977 0ZM18.3828 14.5977C18.3828 16.6875 16.6836 18.3867 14.5938 18.3867H5.40234C3.3125 18.3867 1.61328 16.6875 1.61328 14.5977V5.40234C1.61328 3.3125 3.3125 1.61328 5.40234 1.61328H14.5938C16.6836 1.61328 18.3828 3.3125 18.3828 5.40234V14.5977Z" fill="black" fill-opacity="0.5"/>
<path d="M8.92439 3.82715C8.78376 2.87012 8.34626 1.99902 7.65876 1.31543C6.97517 0.631836 6.10407 0.194336 5.14704 0.0498044C4.70954 -0.0166018 4.26814 -0.0166018 3.83064 0.0498044C2.64704 0.225586 1.60017 0.850586 0.885325 1.81543C0.170481 2.78027 -0.126394 3.95996 0.0493871 5.14355C0.225168 6.32715 0.850169 7.37402 1.81501 8.08887C2.59626 8.66699 3.52204 8.97168 4.47907 8.97168C4.70173 8.97168 4.92439 8.95605 5.14704 8.9209C6.33064 8.74512 7.37751 8.12012 8.09236 7.15527C8.80329 6.19434 9.10017 5.01465 8.92439 3.82715ZM4.90876 7.32324C4.15095 7.43652 3.39314 7.24512 2.77986 6.78809C2.16658 6.33105 1.76423 5.66309 1.65095 4.90527C1.53767 4.14746 1.72908 3.38965 2.18611 2.77637C2.64314 2.15918 3.31111 1.76074 4.06892 1.64746C4.20954 1.62793 4.35017 1.61621 4.49079 1.61621C4.63142 1.61621 4.77204 1.62793 4.91267 1.64746C6.17048 1.83496 7.14314 2.80371 7.33064 4.06543C7.5572 5.63184 6.47517 7.09277 4.90876 7.32324Z" transform="translate(5.55225 5.47363)" fill="black" fill-opacity="0.5"/>
<path d="M2.17578 0.371094C1.9375 0.132812 1.60937 0 1.27344 0C0.9375 0 0.609375 0.136719 0.371093 0.371094C0.132812 0.609375 -4.76837e-07 0.9375 -4.76837e-07 1.27344C-4.76837e-07 1.60937 0.136718 1.9375 0.371093 2.17578C0.609375 2.41406 0.9375 2.54687 1.27344 2.54687C1.60937 2.54687 1.9375 2.41016 2.17578 2.17578C2.41406 1.9375 2.54688 1.60937 2.54688 1.27344C2.54688 0.9375 2.41016 0.609375 2.17578 0.371094Z" transform="translate(13.7812 3.67188)" fill="black" fill-opacity="0.5"/>
</g>
</svg>
