<svg width="80" height="130" viewBox="0 0 80 130" fill="none" xmlns="http://www.w3.org/2000/svg">
<path d="M77.9648 9.26585C76.7906 8.64294 75.5382 8.02002 74.2857 7.47497C69.7456 5.4505 65.0489 3.73749 60.1957 2.49166H60.1174C53.6986 0.856507 46.9667 0 40 0C25.4403 0 11.82 3.81535 0 10.4338C1.33072 20.1669 4.38356 29.3548 8.76712 37.6863C9.86301 39.7108 10.9589 41.6574 12.2114 43.5261C12.5245 44.0712 12.9159 44.5384 13.229 45.0834C14.0117 46.2514 14.7945 47.3415 15.6556 48.4316C16.4384 49.4438 17.2211 50.4561 18.0822 51.4683C18.9432 52.5584 19.8826 53.5706 20.8219 54.5829C20.9785 54.7386 21.2133 54.9722 21.3699 55.2058C25.4403 59.5662 29.9804 63.4594 34.9119 66.8076C35.4599 67.1969 36.0861 67.5862 36.7123 67.9755C37.8082 68.6763 38.9041 69.3771 40 70C41.2524 69.2992 42.4266 68.5206 43.6791 67.7419C61.4481 56.0623 74.4423 37.7642 78.9824 16.3515C79.2955 15.0278 79.5303 13.7041 79.6869 12.3026C79.7652 11.6796 79.9217 11.0567 80 10.356C79.2955 10.0445 78.591 9.65517 77.9648 9.26585ZM3.67906 12.614C14.4031 6.61847 26.771 3.19244 40 3.19244C46.3405 3.19244 52.4462 3.97108 58.317 5.4505C57.6908 5.76196 57.0646 6.15128 56.4384 6.46274C51.5069 9.26585 46.9667 12.6919 42.8963 16.663C42.0352 16.5851 41.0959 16.5851 40.2348 16.5851C39.1389 16.5851 38.1213 16.5851 37.0254 16.663C43.4442 11.6018 50.6458 7.6307 58.317 5.4505C49.1585 7.6307 40.1566 11.8354 32.2505 17.208C30.998 18.0645 29.8239 18.921 28.5714 19.8554C21.9178 24.9166 16.1252 30.9121 11.6634 37.4527C7.59296 29.822 4.85323 21.4905 3.67906 12.614ZM22.6223 52.792C21.7613 51.8576 20.9785 50.9232 20.1174 49.9889C19.3346 49.0545 18.6301 48.198 17.9256 47.1858C17.1429 46.1735 16.4384 45.1613 15.7339 44.1491C15.4207 43.6819 15.1076 43.2147 14.7945 42.7475C14.5597 42.3582 14.3249 41.9689 14.09 41.5795C14.7162 42.5139 15.2642 43.4483 15.7339 44.1491C19.8826 34.8053 26.4579 25.8509 34.5988 18.7653C36.4775 18.5317 38.3562 18.4538 40.3131 18.4538C40.6262 18.4538 40.8611 18.4538 41.1742 18.4538C33.1898 26.7853 27.2407 37.1413 24.1879 48.6652C23.953 49.6774 23.2485 52.792 23.1703 53.337C22.9354 53.1813 22.7789 52.9477 22.6223 52.792ZM76.0861 14.4049C75.9296 15.6507 75.6947 16.8966 75.3816 18.0645C71.3112 37.5306 59.4912 54.1935 43.2877 64.7052C42.1918 65.406 41.0959 66.1068 39.9217 66.7297C38.9041 66.1846 37.8865 65.5617 36.9472 64.9388C36.3992 64.6274 35.8513 64.238 35.3033 63.8487C33.816 59.1769 33.0333 54.1157 33.0333 48.9766C33.0333 37.5306 36.8689 27.0189 43.366 18.6096C43.8356 17.9867 44.3053 17.4416 44.775 16.8187C48.6106 12.3026 53.229 8.48721 58.3953 5.4505C62.8571 6.5406 67.0842 8.09789 71.1546 9.96663C72.2505 10.5117 73.4247 11.0567 74.5205 11.6018C75.1468 11.9132 75.773 12.2247 76.3992 12.614C76.2427 13.2369 76.1644 13.782 76.0861 14.4049Z" fill="#F16522"/>
<path d="M3.68441 0.0294018H5.96095L4.10377 4.41032H4.97245L4.07382 8.93826H0L0.898637 4.49853L3.68441 0.0294018ZM8.77668 0.0294018H11.0532L9.19605 4.41032H10.0647L9.16609 8.93826H5.09227L5.99091 4.49853L8.77668 0.0294018Z" transform="translate(3.06665 109.007)" fill="#F16522"/>
<path d="M18.7361 16.9944H15.6807L14.2729 20.9931H9.92946L17.9273 0.529239H22.8998L22.8399 20.9931H18.5863L18.7361 16.9944ZM18.0471 9.96733L16.9987 13.231H18.8859L19.1255 9.96733L19.5149 5.82163H19.3352L18.0471 9.96733Z" transform="translate(3.06665 109.007)" fill="#F16522"/>
<path d="M33.5102 4.35152L30.2152 20.9931H26.1414L30.1853 0.529239H39.7408L38.9919 4.35152H33.5102Z" transform="translate(3.06665 109.007)" fill="#F16522"/>
<path d="M44.2852 16.9944H41.2299L39.822 20.9931H35.4786L43.4765 0.529239H48.4489L48.389 20.9931H44.1354L44.2852 16.9944ZM43.5963 9.96733L42.5479 13.231H44.435L44.6746 9.96733L45.064 5.82163H44.8843L43.5963 9.96733Z" transform="translate(3.06665 109.007)" fill="#F16522"/>
<path d="M59.3648 4.35152L56.0698 20.9931H51.9959L55.2909 4.35152H52.0858L52.8347 0.529239H63.3188L62.5699 4.35152H59.3648Z" transform="translate(3.06665 109.007)" fill="#F16522"/>
<path d="M72.0461 8.90886H69.7695L71.6267 4.52793H70.758L71.6567 0H75.7305L74.8618 4.43973L72.0461 8.90886ZM66.9538 8.90886H64.6772L66.5344 4.52793H65.6657L66.5644 0H70.6382L69.7695 4.43973L66.9538 8.90886Z" transform="translate(3.06665 109.007)" fill="#F16522"/>
<path d="M5.21875 9.8617H3.40816L2.57387 12.2313H0L4.73947 0.104542H7.68611L7.65061 12.2313H5.12999L5.21875 9.8617ZM4.81048 5.69748L4.1892 7.63149H5.3075L5.44951 5.69748L5.68027 3.24077H5.57376L4.81048 5.69748Z" transform="translate(0 90)" fill="black"/>
<path d="M13.9738 2.3696L13.4945 4.77404H13.7963C14.2223 4.77404 14.5477 4.62884 14.7726 4.33845C15.0093 4.04806 15.1276 3.65313 15.1276 3.15365C15.1276 2.82841 15.0507 2.61933 14.8968 2.52641C14.743 2.42187 14.5182 2.3696 14.2223 2.3696H13.9738ZM13.0508 6.9694L12.4295 10.0011H12.8555C13.0922 10.0011 13.2993 9.94882 13.4768 9.84428C13.6543 9.72812 13.8022 9.57712 13.9205 9.39127C14.0507 9.1938 14.1454 8.9731 14.2046 8.72917C14.2637 8.48524 14.2933 8.22389 14.2933 7.94512C14.2933 7.59665 14.2046 7.34691 14.027 7.1959C13.8614 7.0449 13.6661 6.9694 13.4413 6.9694H13.0508ZM15.5891 5.88914C15.9915 6.02853 16.2637 6.25504 16.4057 6.56866C16.5595 6.88228 16.6364 7.24237 16.6364 7.64892C16.6364 8.33424 16.5477 8.96149 16.3702 9.53065C16.1927 10.0882 15.9382 10.5703 15.6069 10.9768C15.2755 11.3717 14.8732 11.6796 14.3998 11.9002C13.9265 12.1209 13.3939 12.2313 12.8022 12.2313H9.60709L12.0035 0.104542H14.6128C16.5299 0.104542 17.4885 0.952485 17.4885 2.64837C17.4885 3.54278 17.3228 4.24553 16.9914 4.75662C16.6719 5.2677 16.2104 5.61617 15.6069 5.80203L15.5891 5.88914Z" transform="translate(0 90)" fill="black"/>
<path d="M23.8484 2.3696L21.8958 12.2313H19.4817L21.4343 2.3696H19.5349L19.9787 0.104542H26.1915L25.7477 2.3696H23.8484Z" transform="translate(0 90)" fill="black"/>
<path d="M30.271 2.35217C30.0698 2.35217 29.8982 2.41025 29.7562 2.52641C29.6142 2.64256 29.5136 2.83422 29.4545 3.10138L28.2829 9.06022C28.2711 9.1183 28.2593 9.17057 28.2474 9.21703C28.2474 9.25188 28.2474 9.29253 28.2474 9.33899C28.2474 9.76877 28.4545 9.98366 28.8687 9.98366C29.0699 9.98366 29.2415 9.93139 29.3835 9.82685C29.5255 9.7107 29.6261 9.51323 29.6852 9.23445L30.8568 3.31046C30.8805 3.25239 30.8923 3.20012 30.8923 3.15365C30.8923 3.09557 30.8923 3.0375 30.8923 2.97942C30.8923 2.75872 30.8331 2.60191 30.7148 2.50898C30.5964 2.40444 30.4485 2.35217 30.271 2.35217ZM30.413 0C31.3006 0 32.0106 0.220698 32.5431 0.662094C33.0756 1.10349 33.3419 1.74235 33.3419 2.57868C33.3419 2.88069 33.3064 3.19431 33.2354 3.51955L32.1349 9.2693C31.9573 10.2218 31.6023 10.971 31.0698 11.5169C30.5373 12.0629 29.7503 12.3358 28.7089 12.3358C27.7741 12.3358 27.0581 12.0977 26.5611 11.6215C26.0759 11.1452 25.8333 10.5122 25.8333 9.72231C25.8333 9.59454 25.8392 9.46096 25.8511 9.32157C25.8747 9.18218 25.8984 9.0428 25.9221 8.90341L27.0581 3.04911C27.1646 2.52641 27.3007 2.0792 27.4664 1.7075C27.6439 1.32419 27.8628 1.00476 28.1232 0.749211C28.3953 0.493666 28.7149 0.307816 29.0817 0.191659C29.4604 0.0638864 29.9042 0 30.413 0Z" transform="translate(0 90)" fill="black"/>
<path d="M46.1103 0.104542L43.7139 12.2313H34.1462L36.5426 0.104542H38.9035L36.9509 9.98366H38.1934L40.146 0.104542H42.5069L40.5543 9.98366H41.8146L43.7672 0.104542H46.1103Z" transform="translate(0 90)" fill="black"/>
<path d="M46.3703 12.2313L48.7667 0.0871174H51.1276L50.1335 5.07024H50.382C50.6542 5.07024 50.8968 4.93666 51.1098 4.6695C51.3346 4.39072 51.5477 4.0016 51.7488 3.50212L53.0446 0.139388H55.4055L53.9499 3.83317C53.7133 4.42557 53.4174 4.896 53.0624 5.24447C52.7074 5.59294 52.3464 5.83106 51.9796 5.95884C52.3938 6.12146 52.7015 6.36539 52.9026 6.69062C53.1157 7.00425 53.2222 7.45726 53.2222 8.04966V12.2313H50.9678L51.0033 8.76402C51.0151 8.29939 50.956 7.91608 50.8258 7.61407C50.7075 7.31206 50.4471 7.16106 50.0448 7.16106H49.7252L48.7312 12.2313H46.3703Z" transform="translate(0 90)" fill="black"/>
<path d="M60.1146 2.35217C59.9134 2.35217 59.7419 2.41025 59.5998 2.52641C59.4578 2.64256 59.3573 2.83422 59.2981 3.10138L58.1265 9.06022C58.1147 9.1183 58.1029 9.17057 58.091 9.21703C58.091 9.25188 58.091 9.29253 58.091 9.33899C58.091 9.76877 58.2981 9.98366 58.7123 9.98366C58.9135 9.98366 59.0851 9.93139 59.2271 9.82685C59.3691 9.7107 59.4697 9.51323 59.5288 9.23445L60.7004 3.31046C60.7241 3.25239 60.7359 3.20012 60.7359 3.15365C60.7359 3.09557 60.7359 3.0375 60.7359 2.97942C60.7359 2.75872 60.6767 2.60191 60.5584 2.50898C60.44 2.40444 60.2921 2.35217 60.1146 2.35217ZM60.2566 0C61.1442 0 61.8542 0.220698 62.3867 0.662094C62.9192 1.10349 63.1855 1.74235 63.1855 2.57868C63.1855 2.88069 63.15 3.19431 63.079 3.51955L61.9785 9.2693C61.8009 10.2218 61.4459 10.971 60.9134 11.5169C60.3809 12.0629 59.5939 12.3358 58.5525 12.3358C57.6177 12.3358 56.9017 12.0977 56.4047 11.6215C55.9195 11.1452 55.6769 10.5122 55.6769 9.72231C55.6769 9.59454 55.6828 9.46096 55.6947 9.32157C55.7183 9.18218 55.742 9.0428 55.7657 8.90341L56.9017 3.04911C57.0082 2.52641 57.1443 2.0792 57.31 1.7075C57.4875 1.32419 57.7064 1.00476 57.9668 0.749211C58.2389 0.493666 58.5585 0.307816 58.9253 0.191659C59.304 0.0638864 59.7478 0 60.2566 0Z" transform="translate(0 90)" fill="black"/>
<path d="M72.7765 0.104542L70.3801 12.2313H68.037L69.9896 2.3696H68.7471L67.824 6.95198C67.6584 7.7883 67.469 8.5259 67.256 9.16476C67.043 9.79201 66.7826 10.3321 66.475 10.7851C66.1791 11.2382 65.8241 11.6157 65.4099 11.9177C64.9957 12.2197 64.5046 12.4578 63.9366 12.632L63.1911 10.8723C63.6171 10.6632 63.9662 10.4309 64.2384 10.1753C64.5224 9.91978 64.759 9.63519 64.9484 9.32157C65.1377 9.00795 65.2916 8.65367 65.4099 8.25874C65.5401 7.86381 65.6525 7.42241 65.7472 6.93455L67.0962 0.104542H72.7765Z" transform="translate(0 90)" fill="black"/>
<path d="M77.5326 9.8617H75.722L74.8878 12.2313H72.3139L77.0534 0.104542H80L79.9645 12.2313H77.4439L77.5326 9.8617ZM77.1244 5.69748L76.5031 7.63149H77.6214L77.7634 5.69748L77.9942 3.24077H77.8876L77.1244 5.69748Z" transform="translate(0 90)" fill="black"/>
</svg>
