<svg width="20" height="15" viewBox="0 0 20 15" fill="none" xmlns="http://www.w3.org/2000/svg">
<g opacity="0.5">
<path d="M19.5937 2.59375C19.3086 1.53906 18.4766 0.707031 17.4219 0.421875C15.918 0.0117188 10.6016 0 10 0C9.39843 0 4.08594 0.0117187 2.58594 0.40625C2.58203 0.40625 2.58203 0.40625 2.57812 0.410156C1.53906 0.695312 0.6875 1.55469 0.40625 2.59766V2.60156C0.00390623 4.12109 0 7.10156 0 7.22656C0 7.35156 0.00390623 10.3477 0.40625 11.8594C0.691406 12.9141 1.52344 13.75 2.58203 14.0312C4.09765 14.4414 9.39843 14.4531 10 14.4531C10.6016 14.4531 15.9141 14.4414 17.4141 14.0469H17.418C18.4766 13.7617 19.3086 12.9297 19.5937 11.875V11.8711C19.9922 10.3594 20 7.40234 20 7.24609C20 7.09375 20.0078 4.11328 19.5937 2.59375ZM18.4375 7.24218C18.4375 8.04296 18.375 10.3672 18.0859 11.4687C17.9453 11.9883 17.5351 12.3984 17.0156 12.5391C15.9101 12.8281 11.5781 12.8906 10.0039 12.8906C8.43359 12.8906 4.10937 12.8242 2.99219 12.5234C2.46875 12.3828 2.05469 11.9727 1.91406 11.4531C1.56641 10.1445 1.5625 7.2539 1.5625 7.22656C1.5625 6.42578 1.625 4.10156 1.91406 3C2.05469 2.48047 2.47656 2.05859 2.98828 1.91406C4.09765 1.625 8.42578 1.5625 10 1.5625C11.5742 1.5625 15.9062 1.62891 17.0117 1.92969C17.5351 2.07031 17.9453 2.48047 18.0859 3V3.0039C18.3867 4.10156 18.4414 6.43359 18.4375 7.24218Z" fill="black" fill-opacity="0.5"/>
<path d="M2.38418e-07 1.19209e-07V8.21484L7.10937 4.10547L2.38418e-07 1.19209e-07ZM1.5625 2.71094L3.98437 4.10937L1.5625 5.50781V2.71094Z" transform="translate(7.42578 3.11719)" fill="black" fill-opacity="0.5"/>
</g>
</svg>
