<svg width="20" height="40" viewBox="0 0 20 40" fill="none" xmlns="http://www.w3.org/2000/svg">
<path d="M1.33333 3C2.06971 3 2.66667 2.32843 2.66667 1.5C2.66667 0.671573 2.06971 0 1.33333 0C0.596954 0 0 0.671573 0 1.5C0 2.32843 0.596954 3 1.33333 3Z" transform="translate(15.5557 13.5001)" fill="#F16522"/>
<path d="M1.33333 3C2.06971 3 2.66667 2.32843 2.66667 1.5C2.66667 0.671573 2.06971 0 1.33333 0C0.596954 0 0 0.671573 0 1.5C0 2.32843 0.596954 3 1.33333 3Z" transform="translate(15.5557 33.5)" fill="#F16522"/>
<path d="M1.33333 3C2.06971 3 2.66667 2.32843 2.66667 1.5C2.66667 0.671573 2.06971 0 1.33333 0C0.596954 0 0 0.671573 0 1.5C0 2.32843 0.596954 3 1.33333 3Z" transform="translate(15.5557 3.50018)" fill="#F16522"/>
<path d="M17.7333 22.55C17.5556 21.1 16.4444 20 15.1111 20H13.7778V3C13.7778 1.35 12.5778 0 11.1111 0H6.66667C5.2 0 4 1.35 4 3V20H2.66667C1.2 20 0 21.35 0 23V29.5C0 31.15 1.2 32.5 2.66667 32.5H4V37C4 38.65 5.2 40 6.66667 40H11.1111C12.5778 40 13.7778 38.65 13.7778 37V32.5H15.1111C16.2667 32.5 17.2889 31.65 17.6444 30.5C18.9778 30.3 20 28.8 20 27.25V25.25C20 23.75 19.0222 22.7 17.7333 22.55ZM5.77778 3C5.77778 2.45 6.17778 2 6.66667 2H11.1111C11.6 2 12 2.45 12 3V20H9.77778V5.5C9.77778 4.95 9.37778 4.5 8.88889 4.5C8.4 4.5 8 4.95 8 5.5V20H5.77778V3ZM12 37C12 37.55 11.6 38 11.1111 38H6.66667C6.17778 38 5.77778 37.55 5.77778 37V32.5H8V34.5C8 35.05 8.4 35.5 8.88889 35.5C9.37778 35.5 9.77778 35.05 9.77778 34.5V32.5H12V37ZM16 24.5V28.15V29.7L15.9556 29.85C15.8667 30.15 15.5556 30.5 15.1111 30.5H2.66667C2.17778 30.5 1.77778 30.05 1.77778 29.5V23C1.77778 22.45 2.17778 22 2.66667 22H15.1111C15.5556 22 15.9111 22.35 16 22.85V22.95V24.5ZM18.2222 27.25C18.2222 27.6 18.0444 27.95 17.7778 28.1V24.5C18.0444 24.65 18.2222 24.9 18.2222 25.25V27.25Z" fill="#F16522"/>
</svg>
