<svg width="30" height="31" viewBox="0 0 30 31" fill="none" xmlns="http://www.w3.org/2000/svg">
<path d="M27.5387 24.2973V6.74925C28.9783 6.33033 30 5.02703 30 3.44444C30 1.53604 28.4211 0 26.517 0C24.613 0 23.0341 1.53604 23.0341 3.44444C23.0341 5.07357 24.1486 6.42342 25.6811 6.7958V14.2432H15.9288V6.7958C17.4149 6.37688 18.483 5.07357 18.483 3.49099C18.483 1.58258 16.904 0.0465465 15 0.0465465C13.096 0.0465465 11.517 1.58258 11.517 3.49099C11.517 5.07357 12.5851 6.42342 14.0712 6.7958V14.2432H5.01548C4.78328 14.2432 4.31889 14.1967 4.31889 13.7778V6.7958C5.85139 6.42342 6.96594 5.07357 6.96594 3.44444C6.96594 1.53604 5.387 0 3.48297 0C1.57895 0 0 1.53604 0 3.44444C0 4.98048 1.02167 6.28378 2.4613 6.74925V13.7778C2.4613 15.1276 3.52941 16.1051 5.01548 16.1051H14.0712V24.2508C12.5851 24.6697 11.517 25.973 11.517 27.5556C11.517 29.464 13.096 31 15 31C16.904 31 18.483 29.464 18.483 27.5556C18.483 25.973 17.4149 24.6231 15.9288 24.2508V16.1051H25.6811V24.2042C24.1486 24.5766 23.0341 25.9264 23.0341 27.5556C23.0341 29.464 24.613 31 26.517 31C28.4211 31 30 29.464 30 27.5556C30 26.0195 28.9783 24.7162 27.5387 24.2973ZM13.3746 3.44444C13.3746 2.56006 14.1176 1.86186 15 1.86186C15.8824 1.86186 16.6254 2.56006 16.6254 3.44444C16.6254 4.32883 15.8824 5.02703 15 5.02703C14.1176 5.02703 13.3746 4.32883 13.3746 3.44444ZM1.85759 3.44444C1.85759 2.56006 2.60062 1.86186 3.48297 1.86186C4.36532 1.86186 5.10836 2.56006 5.10836 3.44444C5.10836 4.32883 4.36532 5.02703 3.48297 5.02703C2.60062 5.02703 1.85759 4.32883 1.85759 3.44444ZM16.6254 27.5556C16.6254 28.4399 15.8824 29.1381 15 29.1381C14.1176 29.1381 13.3746 28.4399 13.3746 27.5556C13.3746 26.6712 14.1176 25.973 15 25.973C15.8824 25.973 16.6254 26.6712 16.6254 27.5556ZM24.8916 3.44444C24.8916 2.56006 25.6347 1.86186 26.517 1.86186C27.3994 1.86186 28.1424 2.56006 28.1424 3.44444C28.1424 4.32883 27.3994 5.02703 26.517 5.02703C25.6347 5.02703 24.8916 4.32883 24.8916 3.44444ZM26.517 29.1381C25.6347 29.1381 24.8916 28.4399 24.8916 27.5556C24.8916 26.6712 25.6347 25.973 26.517 25.973C27.3994 25.973 28.1424 26.6712 28.1424 27.5556C28.1424 28.4399 27.3994 29.1381 26.517 29.1381Z" fill="#F16522"/>
</svg>
