<svg width="340" height="230" viewBox="0 0 340 230" fill="none" xmlns="http://www.w3.org/2000/svg">
<g opacity="0.5">
<path d="M331.35 39.1813C326.36 36.5473 321.037 33.9132 315.714 31.6085C296.419 23.0478 276.458 15.8042 255.832 10.5362H255.499C228.219 3.6218 199.609 0 170 0C108.121 0 50.2348 16.1335 0 44.1201C5.65558 85.277 18.6301 124.129 37.2603 159.359C41.9178 167.92 46.5753 176.151 51.8982 184.053C53.229 186.358 54.8924 188.334 56.2231 190.638C59.5499 195.577 62.8767 200.187 66.5362 204.796C69.863 209.077 73.1898 213.357 76.8493 217.637C80.5088 222.247 84.501 226.527 88.4932 230.808C89.1585 231.466 90.1566 232.454 90.8219 233.442C108.121 251.88 127.417 268.343 148.376 282.501C150.704 284.147 153.366 285.793 156.027 287.439C160.685 290.403 165.342 293.366 170 296C175.323 293.037 180.313 289.744 185.636 286.452C261.155 237.063 316.38 159.689 335.675 69.1435C337.006 63.5462 338.004 57.9488 338.669 52.0222C339.002 49.3882 339.667 46.7542 340 43.7909C337.006 42.4739 334.012 40.8276 331.35 39.1813ZM15.636 53.3393C61.2133 27.9867 113.777 13.4994 170 13.4994C196.947 13.4994 222.896 16.792 247.847 23.0478C245.186 24.3648 242.524 26.0111 239.863 27.3281C218.904 39.1813 199.609 53.6685 182.309 70.4605C178.65 70.1313 174.658 70.1313 170.998 70.1313C166.341 70.1313 162.016 70.1313 157.358 70.4605C184.638 49.059 215.245 32.267 247.847 23.0478C208.924 32.267 170.665 50.0467 137.065 72.7653C131.742 76.3871 126.751 80.0089 121.429 83.96C93.1507 105.362 68.5323 130.714 49.5695 158.372C32.2701 126.105 20.6262 90.8743 15.636 53.3393ZM96.1448 223.235C92.4853 219.284 89.1585 215.333 85.499 211.382C82.1722 207.43 79.1781 203.809 76.184 199.528C72.8571 195.248 69.863 190.968 66.8689 186.687C65.5382 184.712 64.2074 182.736 62.8767 180.761C61.8787 179.115 60.8806 177.468 59.8826 175.822C62.544 179.773 64.8728 183.724 66.8689 186.687C84.501 147.177 112.446 109.313 147.045 79.3504C155.029 78.3626 163.014 78.0334 171.331 78.0334C172.661 78.0334 173.659 78.0334 174.99 78.0334C141.057 113.264 115.773 157.055 102.798 205.784C101.8 210.065 98.8063 223.235 98.4736 225.539C97.4755 224.881 96.8102 223.893 96.1448 223.235ZM323.366 60.9121C322.701 66.1802 321.703 71.4483 320.372 76.3871C303.072 158.701 252.838 229.161 183.973 273.611C179.315 276.574 174.658 279.537 169.667 282.171C165.342 279.867 161.018 277.232 157.025 274.598C154.697 273.281 152.368 271.635 150.039 269.989C143.718 250.234 140.391 228.832 140.391 207.101C140.391 158.701 156.693 114.251 184.305 78.6919C186.301 76.0578 188.297 73.7531 190.294 71.119C206.595 52.0222 226.223 35.8888 248.18 23.0478C267.143 27.6574 285.108 34.2425 302.407 42.1446C307.065 44.4494 312.055 46.7542 316.712 49.059C319.374 50.376 322.035 51.693 324.697 53.3393C324.031 55.9733 323.699 58.2781 323.366 60.9121Z" transform="translate(0 -33)" fill="white"/>
</g>
</svg>
