<svg width="548" height="478" viewBox="0 0 548 478" fill="none" xmlns="http://www.w3.org/2000/svg">
<path d="M534.059 63.2725C526.016 59.0189 517.436 54.7653 508.857 51.0434C477.757 37.2191 445.585 25.5217 412.341 17.0145H411.804C367.836 5.84872 321.722 0 274 0C174.266 0 80.9667 26.0534 0 71.248C9.11546 137.711 30.0274 200.452 60.0548 257.344C67.5616 271.168 75.0685 284.461 83.6478 297.221C85.7926 300.943 88.4736 304.133 90.6184 307.855C95.9804 315.831 101.342 323.275 107.241 330.719C112.603 337.631 117.965 344.543 123.863 351.455C129.761 358.899 136.196 365.811 142.63 372.723C143.703 373.786 145.311 375.382 146.384 376.977C174.266 406.752 205.366 433.337 239.147 456.2C242.9 458.859 247.19 461.517 251.479 464.176C258.986 468.961 266.493 473.746 274 478C282.579 473.215 290.622 467.898 299.202 462.581C420.92 382.825 509.93 257.875 541.029 111.657C543.174 102.618 544.783 93.5795 545.855 84.0089C546.391 79.7553 547.464 75.5017 548 70.7164C543.174 68.5895 538.348 65.931 534.059 63.2725ZM25.2016 86.1357C98.6614 45.1947 183.382 21.7998 274 21.7998C317.432 21.7998 359.256 27.1168 399.472 37.2191C395.182 39.3459 390.892 42.0044 386.603 44.1313C352.822 63.2725 321.722 86.6674 293.84 113.784C287.941 113.253 281.507 113.252 275.609 113.252C268.102 113.252 261.131 113.253 253.624 113.784C297.593 79.2236 346.924 52.1068 399.472 37.2191C336.736 52.1068 275.072 80.8187 220.916 117.506C212.337 123.355 204.294 129.204 195.714 135.584C150.137 170.145 110.458 211.086 79.8943 255.749C52.0117 203.642 33.2446 146.75 25.2016 86.1357ZM154.963 360.494C149.065 354.113 143.703 347.733 137.804 341.353C132.442 334.972 127.616 329.123 122.791 322.211C117.429 315.299 112.603 308.387 107.777 301.475C105.632 298.285 103.487 295.095 101.342 291.904C99.7339 289.246 98.1252 286.587 96.5166 283.929C100.806 290.309 104.56 296.69 107.777 301.475C136.196 237.671 181.237 176.525 237.002 128.14C249.871 126.545 262.74 126.013 276.145 126.013C278.29 126.013 279.898 126.013 282.043 126.013C227.35 182.905 186.599 253.622 165.687 332.314C164.078 339.226 159.252 360.494 158.716 364.216C157.108 363.152 156.035 361.557 154.963 360.494ZM521.19 98.3648C520.117 106.872 518.509 115.379 516.364 123.355C488.481 256.28 407.515 370.065 296.521 441.844C289.014 446.63 281.507 451.415 273.464 455.668C266.493 451.947 259.523 447.693 253.088 443.439C249.335 441.313 245.581 438.654 241.828 435.996C231.64 404.093 226.278 369.533 226.278 334.44C226.278 256.28 252.552 184.501 297.057 127.077C300.274 122.823 303.491 119.101 306.708 114.848C332.982 84.0089 364.618 57.9555 400.008 37.2191C430.571 44.663 459.526 55.297 487.409 68.0578C494.916 71.7798 502.959 75.5017 510.466 79.2236C514.755 81.3504 519.045 83.4772 523.335 86.1357C522.262 90.3893 521.726 94.1112 521.19 98.3648Z" fill="#f4f1f1"/>
</svg>
